PathFileType	4	(X/Y/Z)	./resultDataOpenSim/trcMotMarkerGrf/sub06/qtm-15-03.trc
DataRate	CameraRate	NumFrames	NumMarkers	Units	OrigDataRate	OrigDataStartFrame	OrigNumFrames
250.000000	250.000000	9	24	m	250.000000	196	521
Frame#	Time	L.Toe.Tip			R.Toe.Tip			L.Ankle.Lat			R.Ankle.Lat			L.Ankle.Med			R.Ankle.Med			L.Heel			R.Heel			L.Knee.Lat			R.Knee.Lat			L.Knee.Med			R.Knee.Med			L.Thigh.Upper			R.Thigh.Upper			L.ASIS			R.ASIS			V.Sacral			L.Acromium			R.Acromium			C7			L.Elbow			R.Elbow			L.Wrist.Lat			R.Wrist.Lat
		X1	Y1	Z1	X2	Y2	Z2	X3	Y3	Z3	X4	Y4	Z4	X5	Y5	Z5	X6	Y6	Z6	X7	Y7	Z7	X8	Y8	Z8	X9	Y9	Z9	X10	Y10	Z10	X11	Y11	Z11	X12	Y12	Z12	X13	Y13	Z13	X14	Y14	Z14	X15	Y15	Z15	X16	Y16	Z16	X17	Y17	Z17	X18	Y18	Z18	X19	Y19	Z19	X20	Y20	Z20	X21	Y21	Z21	X22	Y22	Z22	X23	Y23	Z23	X24	Y24	Z24

196	0.78	0.15610734	-0.064431085	-0.041049426	-0.38430214	0.087206379	0.090945886	0.035082656	-0.032659716	-0.091547085	-0.40133948	0.22501032	0.10825347	0.011975399	-0.017889471	-0.0090041213	-0.35834652	0.2097465	0.029208208	-0.042313542	-0.061084006	-0.06475638	-0.42654361	0.26634789	0.040902408	0.0097366469	0.33972811	-0.11382152	-0.054858131	0.32813092	0.18942327	-0.043787045	0.33899066	-0.002249072	-0.046797731	0.31987474	0.061276362	-0.01460251	0.73115068	-0.17582062	-0.11445648	0.68256522	0.15774398	0.044896006	0.7642425	-0.10872942	-0.010322937	0.74411628	0.12420579	-0.17594745	0.83937172	-0.0054064244	-0.030246322	1.2324779	-0.20200826	-0.092978229	1.2333293	0.15979858	-0.14350331	1.2681728	-0.037471512	-0.14254457	0.94628954	-0.26382199	-0.11016106	0.91089143	0.26297063	-0.094098793	0.71174727	-0.30240524	0.12020795	0.82321362	0.24576242
197	0.784	0.155991	-0.064400614	-0.041087708	-0.36301738	0.088706633	0.090633611	0.035320317	-0.032574489	-0.091982916	-0.38376908	0.22537901	0.10848516	0.012074065	-0.017509227	-0.0096107592	-0.34087473	0.21139676	0.029255553	-0.042407668	-0.060964405	-0.065384474	-0.41042314	0.26656302	0.04150945	0.013380602	0.34001682	-0.11471235	-0.03800747	0.33019166	0.1885813	-0.040724336	0.33888427	-0.0030403015	-0.031573712	0.32207497	0.060134964	-0.0092576286	0.73190883	-0.17657964	-0.1076044	0.68476983	0.15736608	0.049588741	0.76691196	-0.10981645	-0.0047429937	0.74669877	0.12288733	-0.17220311	0.84138855	-0.0049166999	-0.023043342	1.233973	-0.20068339	-0.083649979	1.2353607	0.16044213	-0.13602038	1.2697811	-0.035759676	-0.13030756	0.94664694	-0.26326964	-0.10761794	0.91288757	0.26043269	-0.079499215	0.71256366	-0.3024052	0.12166818	0.81968904	0.2480652
198	0.788	0.15578829	-0.064378016	-0.041154584	-0.34170536	0.09013123	0.090315078	0.035400427	-0.032394692	-0.092418735	-0.36577012	0.2257936	0.10885608	0.012142152	-0.017093479	-0.010161742	-0.32320808	0.21298697	0.029330195	-0.042594041	-0.060879948	-0.065935126	-0.39407459	0.26663175	0.042172842	0.017338373	0.34051234	-0.11537434	-0.021115447	0.33258256	0.18761859	-0.03745851	0.3387497	-0.003577345	-0.016414212	0.32429504	0.058749468	-0.0038233732	0.73271245	-0.17737852	-0.10138549	0.68670489	0.15688516	0.054138312	0.76984691	-0.11070369	0.00064569172	0.74951195	0.12162901	-0.167974	0.84314597	-0.0050325107	-0.015987373	1.2357604	-0.19933442	-0.074611861	1.2376324	0.16104838	-0.12868865	1.2713313	-0.034116551	-0.11820739	0.94731297	-0.26246709	-0.10534497	0.9155964	0.25783469	-0.064605848	0.71392308	-0.30236985	0.12248455	0.81633842	0.25048309
199	0.792	0.15557002	-0.064355687	-0.041274066	-0.32038955	0.091465998	0.089981541	0.035401937	-0.032143824	-0.092873595	-0.34732394	0.22623397	0.10938201	0.012206624	-0.016652363	-0.010656856	-0.3054029	0.21446798	0.029457143	-0.042796892	-0.060825858	-0.066407479	-0.37761431	0.2665258	0.042876366	0.021518388	0.34119276	-0.11581223	-0.0041998664	0.33535275	0.18653073	-0.033909064	0.33868046	-0.003860847	-0.0011525516	0.32665905	0.057131245	0.0015891411	0.73357468	-0.17819803	-0.095669451	0.68843672	0.15626776	0.058577922	0.77294061	-0.11144077	0.0059251031	0.75248271	0.12043196	-0.16331541	0.84466257	-0.0056841111	-0.0090597496	1.2377822	-0.19800916	-0.065913149	1.2400833	0.16163925	-0.12145398	1.2728398	-0.032561974	-0.10632689	0.94812724	-0.26153905	-0.10313587	0.91881376	0.25522972	-0.049535757	0.71566422	-0.30231091	0.12281353	0.81317868	0.25292785
200	0.796	0.15540715	-0.064309052	-0.041428656	-0.29908648	0.092701539	0.089640616	0.035435133	-0.031853456	-0.093315703	-0.32862646	0.22658742	0.1099687	0.012339264	-0.01616539	-0.011125121	-0.28747599	0.21581618	0.029654379	-0.042950294	-0.060774476	-0.066812123	-0.36110019	0.26622548	0.043581597	0.025855603	0.34197674	-0.11602447	0.012742173	0.33855341	0.18531013	-0.029900504	0.33880992	-0.0039033578	0.014235247	0.32930327	0.055332764	0.0068961823	0.73445514	-0.17899996	-0.089920408	0.69010035	0.15562383	0.062883527	0.77604602	-0.1120971	0.011102725	0.7555152	0.11929275	-0.15830833	0.84597521	-0.0067814593	-0.00217937	1.2399868	-0.19670304	-0.057546437	1.2426362	0.16222922	-0.11426907	1.2743286	-0.031111074	-0.094679991	0.94904909	-0.26056978	-0.10084749	0.92233493	0.25267532	-0.034380072	0.71767021	-0.30222503	0.12280536	0.81023631	0.25531432
201	0.8	0.15532277	-0.064246477	-0.041552337	-0.27780986	0.093834777	0.089322045	0.035560651	-0.031559952	-0.093701766	-0.309998	0.22671054	0.11046024	0.012566221	-0.015613074	-0.011592169	-0.2694917	0.21703398	0.029841631	-0.043030937	-0.060682801	-0.067166393	-0.34453607	0.26571888	0.044235783	0.030300552	0.34275439	-0.116009	0.02970531	0.34223944	0.18395031	-0.02519244	0.33930878	-0.0037419383	0.029696279	0.33234216	0.053442787	0.012031308	0.73529839	-0.17974617	-0.083679262	0.6918553	0.15486966	0.067022105	0.77902006	-0.11273345	0.016154695	0.75850923	0.1182521	-0.15302548	0.84711526	-0.008241871	0.0047601076	1.2423394	-0.19538168	-0.049459983	1.2452196	0.16283647	-0.10709714	1.275822	-0.029774981	-0.0832285	0.9501019	-0.259673	-0.098420038	0.9259839	0.25023601	-0.019159774	0.71989251	-0.30209211	0.12253828	0.8075346	0.25754621
202	0.804	0.15529697	-0.064198083	-0.041603121	-0.25650707	0.094904123	0.08909757	0.035754152	-0.031288861	-0.0940385	-0.29170454	0.22651552	0.11073939	0.012864777	-0.015003956	-0.012045681	-0.25154989	0.21813245	0.029905378	-0.043048297	-0.060508243	-0.067499303	-0.32792114	0.2649976	0.044830804	0.034815868	0.34344765	-0.11578245	0.046646733	0.34645387	0.18244823	-0.019740755	0.34028227	-0.0034019651	0.04517291	0.33585527	0.051529264	0.01694251	0.73607376	-0.18041618	-0.076810557	0.69383	0.153833	0.070998324	0.78177515	-0.11338728	0.021098269	0.76142348	0.11735356	-0.14752859	0.84810646	-0.0099913608	0.011850009	1.2448219	-0.19400818	-0.041589512	1.2477735	0.16347674	-0.099903997	1.2773363	-0.028556494	-0.071949161	0.95131194	-0.25896899	-0.095872519	0.92964861	0.247974	-0.003829795	0.72234012	-0.30189777	0.12205315	0.80508428	0.25954282
203	0.808	0.15530698	-0.06417392	-0.041608291	-0.23507561	0.09597206	0.089063945	0.035958627	-0.031041697	-0.094373705	-0.27384455	0.22600431	0.11078629	0.013232906	-0.014374688	-0.012436665	-0.23370378	0.21912943	0.029788227	-0.043018912	-0.060225737	-0.067842053	-0.31125104	0.2640635	0.045423336	0.039370019	0.34405111	-0.11539588	0.063492424	0.35120435	0.18080388	-0.013775417	0.34165641	-0.002898468	0.060639673	0.3399132	0.049579397	0.021606254	0.73678344	-0.18100539	-0.069640049	0.69601608	0.15273443	0.074867994	0.78428265	-0.11406772	0.025973217	0.76426043	0.1166092	-0.14187471	0.84896933	-0.011959064	0.019149482	1.2474219	-0.19255782	-0.033886959	1.2502426	0.16414628	-0.092655694	1.2788796	-0.027446834	-0.060882243	0.95268058	-0.25847423	-0.093263633	0.93329167	0.2459208	0.011627457	0.72503534	-0.30168126	0.12136884	0.80288658	0.26131173
204	0.812	0.15534828	-0.064163583	-0.041615641	-0.21349544	0.097041822	0.089272449	0.03616704	-0.030798161	-0.094721357	-0.25626501	0.22528878	0.11072222	0.01370878	-0.013754929	-0.01273278	-0.21593763	0.22002763	0.029517102	-0.042945145	-0.05983096	-0.068201211	-0.2945153	0.26291476	0.046049025	0.043929454	0.34461495	-0.11492126	0.080174764	0.3564521	0.17902207	-0.0075672649	0.34321311	-0.0022553305	0.076064683	0.34459236	0.047548667	0.025995167	0.73744285	-0.18151999	-0.062751471	0.6983069	0.15208867	0.078714859	0.78654459	-0.11476056	0.030802881	0.76702189	0.11601431	-0.13611978	0.84972382	-0.014074754	0.026678113	1.2501222	-0.19102659	-0.02631981	1.2525782	0.16481673	-0.085323839	1.2804613	-0.026428277	-0.050077847	0.95417644	-0.25810814	-0.090617885	0.93692399	0.24403063	0.027166931	0.7279853	-0.30152338	0.12049928	0.80093231	0.26294205
